<svg width="1920" height="1616" viewBox="0 0 1920 1616" fill="none" xmlns="http://www.w3.org/2000/svg" preserveAspectRatio="none">
<g clip-path="url(#clip0_14_19)">
<path d="M-122.268 -219.971C-122.268 -219.971 115 678 891 374C1667 70 1667 678 2327 230C2987 -218 2528.04 1597.53 2528.04 1597.53C2528.04 1597.53 1512 1280.01 971.002 1395.01C430 1510 -316.691 1277.93 -316.691 1277.93L-122.268 -219.971Z" fill="#25D1F4" fill-opacity="0.8"/>
<path d="M-535.602 262.415C-535.602 262.415 113.218 600.108 1148.87 461.946C2184.52 323.783 2083.13 -158.755 2083.13 -158.755L2583.44 1421.09C2583.44 1421.09 1824 1260.83 1077.67 1377.82C331.333 1494.81 -361.411 1694.35 -361.411 1694.35L-535.602 262.415Z" fill="#0055FF" fill-opacity="0.5"/>
<path d="M520.926 1064.08C2.11309 1206.47 38.2504 665.62 -560.899 1134.94L-24.1419 1526.42L1994.08 945.52C2033.38 945.106 2264.75 556.422 1744.02 487.801C1223.28 419.18 1039.74 921.681 520.926 1064.08Z" fill="url(#paint0_linear_14_19)"/>
</g>
<defs>
<linearGradient id="paint0_linear_14_19" x1="967" y1="558" x2="1122" y2="1098" gradientUnits="userSpaceOnUse">
<stop stop-color="#25D1F4" stop-opacity="0.4"/>
<stop offset="1" stop-color="#25D1F4" stop-opacity="0"/>
</linearGradient>
<clipPath id="clip0_14_19">
<rect width="1920" height="1616" fill="white"/>
</clipPath>
</defs>
</svg>
